<svg version="1.1" id="Layer_1" xmlns="http://www.w3.org/2000/svg" xmlns:xlink="http://www.w3.org/1999/xlink" x="0px" y="0px"
	 width="1000" height="1000" viewBox="0 0 1000 1000" enable-background="new 0 0 1000 1000" xml:space="preserve">
<path fill="#5C2D91" opacity="1.000000" stroke="none" 
	d="
M1.000000,542.000000 
	C1.000000,541.555542 1.000000,541.111084 1.378196,540.197021 
	C2.834641,533.525146 3.670292,527.268860 5.036556,521.130737 
	C9.160295,502.604156 12.695803,483.895569 17.922752,465.677429 
	C26.109016,437.144958 38.779087,410.460144 53.953266,384.922638 
	C68.735435,360.044830 86.392075,337.375214 106.225212,316.440613 
	C121.407700,300.414978 138.248062,286.200165 156.161407,273.199860 
	C179.747711,256.082489 205.019608,242.020508 231.968491,231.183807 
	C255.923462,221.551025 280.447052,213.335800 306.223724,209.995163 
	C324.242401,207.659943 342.312958,204.740143 360.417694,204.264481 
	C395.055634,203.354446 429.734528,203.950745 464.396271,204.016937 
	C488.357513,204.062683 512.367004,204.512650 536.017761,199.920258 
	C552.253906,196.767609 568.515808,193.460403 584.436279,189.035446 
	C609.438599,182.086227 632.814331,171.123352 655.209351,158.002838 
	C680.532715,143.166672 703.086121,124.824600 724.031250,104.404793 
	C726.614441,101.886414 728.464783,98.481544 731.332336,96.438660 
	C733.143311,95.148453 736.348877,95.036133 738.659668,95.567123 
	C739.758667,95.819672 741.065308,98.920349 740.848022,100.538887 
	C739.462219,110.861977 737.725403,121.139458 736.016357,131.417358 
	C731.185791,160.468063 721.403992,187.947784 708.745483,214.381729 
	C703.348267,225.652405 696.461182,236.204132 690.467651,247.200592 
	C689.577332,248.833984 688.987183,252.022079 689.854492,252.883301 
	C691.036377,254.056839 693.967224,254.403946 695.776062,253.862518 
	C709.585815,249.729034 723.417053,245.614807 737.026306,240.876038 
	C757.630127,233.701767 777.568542,224.829147 796.365417,213.774780 
	C822.573059,198.362091 846.791443,180.271057 867.108337,157.386429 
	C874.540527,149.014923 882.395813,140.961609 889.210938,132.110855 
	C908.206604,107.441093 924.484558,80.990547 939.154358,53.540054 
	C940.694702,50.657692 942.182434,47.901890 946.408386,47.878063 
	C950.600769,47.854424 952.209534,50.444195 953.744202,53.389233 
	C967.672485,80.117714 979.016296,107.866165 986.554871,137.098404 
	C991.848022,157.623413 995.914490,178.369720 998.072266,199.485672 
	C998.605347,204.702362 1000.000977,209.830917 1001.000000,215.000000 
	C1001.000000,215.444443 1001.000000,215.888901 1000.640137,216.818970 
	C1000.520203,219.203064 1000.760071,221.101532 1001.000000,223.000000 
	C1001.000000,247.354233 1001.000000,271.708466 1000.627563,296.702332 
	C1000.503357,299.894653 1000.751709,302.447327 1001.000000,305.000000 
	C1001.000000,305.444458 1001.000000,305.888885 1000.632263,306.824921 
	C999.844788,308.540161 999.181274,309.737122 999.043945,310.991669 
	C997.973633,320.769379 997.456848,330.630737 995.901306,340.327026 
	C993.377197,356.061157 990.576782,371.772644 987.200317,387.343475 
	C981.657410,412.905029 973.528809,437.718903 963.929321,462.034546 
	C953.452759,488.572083 941.280273,514.390625 926.406128,538.683044 
	C913.674866,559.475830 899.597961,579.508850 885.134888,599.155457 
	C874.461670,613.653992 862.987122,627.744080 850.468201,640.657532 
	C833.768372,657.883545 816.312378,674.499207 798.058167,690.059387 
	C781.325989,704.322083 763.528015,717.453064 745.405701,729.929565 
	C730.035706,740.511353 713.823486,749.975586 697.463562,758.989929 
	C670.799072,773.682129 643.025635,786.068848 614.214661,796.012390 
	C579.427490,808.018494 544.004211,817.514221 507.397980,821.976440 
	C488.528229,824.276672 469.609131,827.416931 450.677277,827.683044 
	C419.064392,828.127441 387.286102,830.229858 355.834290,824.927124 
	C343.354034,822.822998 330.848328,820.470032 318.661835,817.113281 
	C298.086151,811.445801 278.501892,803.185974 259.929413,792.516357 
	C240.993256,781.637817 223.090820,769.297485 207.649277,753.886475 
	C196.829666,743.088196 186.685455,731.497864 177.206497,719.497498 
	C161.141190,699.158813 149.387802,676.247314 141.442780,651.641724 
	C133.265411,626.316589 129.447296,600.316650 130.779419,573.473145 
	C131.596024,557.017883 133.504623,540.848145 137.024231,524.824768 
	C142.728394,498.856232 152.939835,474.587341 166.723236,452.017090 
	C180.980118,428.671509 198.597214,407.993256 219.876328,390.535126 
	C233.285248,379.534027 247.399734,369.656433 262.792938,361.683899 
	C281.757141,351.861786 301.554993,344.425171 322.467102,339.619904 
	C340.312439,335.519318 358.327057,333.081848 376.490662,333.243256 
	C391.213837,333.374023 405.975861,335.207672 420.617065,337.091156 
	C443.685455,340.058746 465.451538,347.668152 486.285767,357.791260 
	C505.571014,367.161743 523.350159,378.881683 539.607117,392.979736 
	C555.021545,406.347076 569.061340,420.985474 580.767944,437.624786 
	C596.092041,459.405701 607.877991,483.069244 615.888489,508.560455 
	C622.286316,528.919617 625.464478,549.857178 626.888062,571.038330 
	C627.850586,585.358093 626.877441,599.682861 622.948242,613.611572 
	C619.112610,627.208679 612.773743,639.455322 601.253235,648.093079 
	C590.680542,656.020203 578.659668,658.567200 565.344055,657.152405 
	C549.323853,655.450256 536.370605,649.045105 526.990906,635.861755 
	C518.331299,623.690430 515.292847,609.634277 515.130310,595.160889 
	C514.731689,559.666260 515.033386,524.164124 514.956177,488.665192 
	C514.946899,484.408447 514.611450,480.110535 513.960815,475.903839 
	C509.551880,447.396179 482.981323,423.940033 453.963379,423.988922 
	C424.297577,424.038910 394.628479,423.753235 364.967529,424.136383 
	C354.846252,424.267151 344.647736,425.400146 334.654175,427.082855 
	C307.906433,431.586639 284.943359,444.264130 264.785187,461.918488 
	C252.765732,472.444946 242.748734,484.780457 234.515610,498.703644 
	C221.538834,520.648987 214.092789,544.254944 213.307510,569.504395 
	C212.898544,582.654053 214.446716,596.168762 217.254440,609.051392 
	C223.242722,636.527527 236.541840,660.458496 256.213348,680.716980 
	C270.518341,695.448914 287.040283,706.953064 305.953857,714.995300 
	C323.236725,722.344177 341.213776,726.668518 360.029083,726.933044 
	C366.452576,727.023376 372.891113,726.401489 379.315643,725.992432 
	C395.936981,724.934204 411.526978,720.065491 426.547241,713.104126 
	C445.096130,704.507385 461.104675,692.461121 474.965363,677.500366 
	C476.681152,675.648438 478.229156,673.641052 479.944885,671.598633 
	C489.818634,687.803040 502.917175,699.635193 519.125122,707.972900 
	C530.779480,713.968018 543.197144,717.421875 556.263489,719.148621 
	C568.721619,720.794983 581.132019,721.180786 593.345398,718.711182 
	C620.323120,713.256226 641.945007,698.597778 658.325684,676.918152 
	C677.156372,651.995911 686.127319,623.077454 686.704590,592.101379 
	C687.024780,574.915955 685.247498,557.543518 682.765625,540.495605 
	C680.316650,523.673889 676.397888,506.992676 672.023560,490.542450 
	C665.983459,467.828033 656.231079,446.545349 644.607239,426.116119 
	C633.915222,407.324677 621.673523,389.559692 606.974609,373.775330 
	C595.821350,361.798431 583.560120,350.798340 571.289795,339.930389 
	C555.359436,325.820679 537.276306,314.759125 518.489319,304.873260 
	C495.522461,292.787872 471.265289,284.064636 446.050323,278.121002 
	C424.138641,272.955963 401.823425,270.356354 379.329834,270.132721 
	C368.643402,270.026459 357.873199,270.783142 347.265564,272.130219 
	C332.242798,274.038055 317.083618,275.845428 302.434143,279.503479 
	C276.867981,285.887451 252.423462,295.447845 229.190613,308.207275 
	C203.450699,322.343597 180.077728,339.645050 159.528412,360.382751 
	C146.998032,373.028015 136.069778,387.352661 125.169533,401.499054 
	C110.184387,420.946899 99.003265,442.684845 90.100853,465.489410 
	C82.302750,485.465149 75.577690,505.839447 72.922630,527.276855 
	C71.172783,541.405334 68.492538,555.543884 68.293327,569.706970 
	C68.052757,586.810364 69.183136,604.042969 71.242790,621.035095 
	C72.975487,635.329773 76.261581,649.527344 79.976967,663.470276 
	C86.280663,687.126465 96.189560,709.384094 108.251350,730.696228 
	C119.401588,750.397644 132.627472,768.627563 147.920441,785.236328 
	C160.563522,798.967163 174.293823,811.599060 189.269867,822.893677 
	C215.984131,843.040955 244.970184,858.903015 276.518188,869.934265 
	C300.989349,878.491028 326.050690,884.934814 351.985474,886.920227 
	C374.840454,888.669861 397.739410,890.089478 420.645599,890.821411 
	C431.974487,891.183472 443.377197,889.844116 454.721741,888.957703 
	C469.453003,887.806702 484.193359,886.630249 498.867188,884.925903 
	C512.968262,883.288086 527.179993,881.820923 541.003723,878.750610 
	C565.379456,873.336609 589.730835,867.550720 613.664307,860.473022 
	C644.497925,851.354675 674.536804,839.719849 703.211670,825.125916 
	C725.377197,813.844849 746.773254,801.054626 768.561707,789.026611 
	C771.354187,787.484924 774.402954,785.474731 778.254883,788.727295 
	C767.649048,798.827209 757.583252,808.955078 746.926758,818.417725 
	C734.786316,829.198181 722.309387,839.622864 709.638489,849.777649 
	C687.589478,867.448364 663.549622,882.101318 638.508179,895.088013 
	C608.434875,910.684021 577.101868,923.208313 544.351013,931.936035 
	C527.736145,936.363770 511.024353,940.600525 494.144836,943.811890 
	C479.079559,946.678101 463.757294,948.338379 448.486389,949.939392 
	C432.139465,951.653259 415.739685,953.311523 399.326660,953.819214 
	C383.255127,954.316345 367.116089,953.738770 351.047424,952.875244 
	C337.801147,952.163269 324.470001,951.150879 311.436462,948.818604 
	C293.563843,945.620300 275.752228,941.721313 258.246613,936.913208 
	C229.258469,928.951416 202.120285,916.455078 176.279190,901.080933 
	C156.278702,889.181641 137.378220,875.681274 120.555908,859.708496 
	C106.911461,846.753174 94.328537,832.601257 82.020844,818.336365 
	C66.427681,800.263367 54.012104,779.930298 43.023647,758.791626 
	C31.913641,737.419128 23.173553,715.064636 16.424009,691.919922 
	C9.795847,669.191528 5.090488,646.116272 2.927117,622.525513 
	C2.814888,621.301758 1.666163,620.172974 0.999999,619.000000 
	C1.000000,618.555542 1.000000,618.111084 1.365683,617.172974 
	C1.487577,614.452881 1.243788,612.226440 0.999999,610.000000 
	C1.000000,589.979126 1.000000,569.958191 1.365684,549.308350 
	C1.487578,546.452881 1.243788,544.226440 1.000000,542.000000 
z"/>
<path fill="#FFFFFF" opacity="1.000000" stroke="none" 
	d="
M0.999999,619.468628 
	C1.666163,620.172974 2.814888,621.301758 2.927117,622.525513 
	C5.090488,646.116272 9.795847,669.191528 16.424009,691.919922 
	C23.173553,715.064636 31.913641,737.419128 43.023647,758.791626 
	C54.012104,779.930298 66.427681,800.263367 82.020844,818.336365 
	C94.328537,832.601257 106.911461,846.753174 120.555908,859.708496 
	C137.378220,875.681274 156.278702,889.181641 176.279190,901.080933 
	C202.120285,916.455078 229.258469,928.951416 258.246613,936.913208 
	C275.752228,941.721313 293.563843,945.620300 311.436462,948.818604 
	C324.470001,951.150879 337.801147,952.163269 351.047424,952.875244 
	C367.116089,953.738770 383.255127,954.316345 399.326660,953.819214 
	C415.739685,953.311523 432.139465,951.653259 448.486389,949.939392 
	C463.757294,948.338379 479.079559,946.678101 494.144836,943.811890 
	C511.024353,940.600525 527.736145,936.363770 544.351013,931.936035 
	C577.101868,923.208313 608.434875,910.684021 638.508179,895.088013 
	C663.549622,882.101318 687.589478,867.448364 709.638489,849.777649 
	C722.309387,839.622864 734.786316,829.198181 746.926758,818.417725 
	C757.583252,808.955078 767.649048,798.827209 778.254883,788.727295 
	C774.402954,785.474731 771.354187,787.484924 768.561707,789.026611 
	C746.773254,801.054626 725.377197,813.844849 703.211670,825.125916 
	C674.536804,839.719849 644.497925,851.354675 613.664307,860.473022 
	C589.730835,867.550720 565.379456,873.336609 541.003723,878.750610 
	C527.179993,881.820923 512.968262,883.288086 498.867188,884.925903 
	C484.193359,886.630249 469.453003,887.806702 454.721741,888.957703 
	C443.377197,889.844116 431.974487,891.183472 420.645599,890.821411 
	C397.739410,890.089478 374.840454,888.669861 351.985474,886.920227 
	C326.050690,884.934814 300.989349,878.491028 276.518188,869.934265 
	C244.970184,858.903015 215.984131,843.040955 189.269867,822.893677 
	C174.293823,811.599060 160.563522,798.967163 147.920441,785.236328 
	C132.627472,768.627563 119.401588,750.397644 108.251350,730.696228 
	C96.189560,709.384094 86.280663,687.126465 79.976967,663.470276 
	C76.261581,649.527344 72.975487,635.329773 71.242790,621.035095 
	C69.183136,604.042969 68.052757,586.810364 68.293327,569.706970 
	C68.492538,555.543884 71.172783,541.405334 72.922630,527.276855 
	C75.577690,505.839447 82.302750,485.465149 90.100853,465.489410 
	C99.003265,442.684845 110.184387,420.946899 125.169533,401.499054 
	C136.069778,387.352661 146.998032,373.028015 159.528412,360.382751 
	C180.077728,339.645050 203.450699,322.343597 229.190613,308.207275 
	C252.423462,295.447845 276.867981,285.887451 302.434143,279.503479 
	C317.083618,275.845428 332.242798,274.038055 347.265564,272.130219 
	C357.873199,270.783142 368.643402,270.026459 379.329834,270.132721 
	C401.823425,270.356354 424.138641,272.955963 446.050323,278.121002 
	C471.265289,284.064636 495.522461,292.787872 518.489319,304.873260 
	C537.276306,314.759125 555.359436,325.820679 571.289795,339.930389 
	C583.560120,350.798340 595.821350,361.798431 606.974609,373.775330 
	C621.673523,389.559692 633.915222,407.324677 644.607239,426.116119 
	C656.231079,446.545349 665.983459,467.828033 672.023560,490.542450 
	C676.397888,506.992676 680.316650,523.673889 682.765625,540.495605 
	C685.247498,557.543518 687.024780,574.915955 686.704590,592.101379 
	C686.127319,623.077454 677.156372,651.995911 658.325684,676.918152 
	C641.945007,698.597778 620.323120,713.256226 593.345398,718.711182 
	C581.132019,721.180786 568.721619,720.794983 556.263489,719.148621 
	C543.197144,717.421875 530.779480,713.968018 519.125122,707.972900 
	C502.917175,699.635193 489.818634,687.803040 479.944885,671.598633 
	C478.229156,673.641052 476.681152,675.648438 474.965363,677.500366 
	C461.104675,692.461121 445.096130,704.507385 426.547241,713.104126 
	C411.526978,720.065491 395.936981,724.934204 379.315643,725.992432 
	C372.891113,726.401489 366.452576,727.023376 360.029083,726.933044 
	C341.213776,726.668518 323.236725,722.344177 305.953857,714.995300 
	C287.040283,706.953064 270.518341,695.448914 256.213348,680.716980 
	C236.541840,660.458496 223.242722,636.527527 217.254440,609.051392 
	C214.446716,596.168762 212.898544,582.654053 213.307510,569.504395 
	C214.092789,544.254944 221.538834,520.648987 234.515610,498.703644 
	C242.748734,484.780457 252.765732,472.444946 264.785187,461.918488 
	C284.943359,444.264130 307.906433,431.586639 334.654175,427.082855 
	C344.647736,425.400146 354.846252,424.267151 364.967529,424.136383 
	C394.628479,423.753235 424.297577,424.038910 453.963379,423.988922 
	C482.981323,423.940033 509.551880,447.396179 513.960815,475.903839 
	C514.611450,480.110535 514.946899,484.408447 514.956177,488.665192 
	C515.033386,524.164124 514.731689,559.666260 515.130310,595.160889 
	C515.292847,609.634277 518.331299,623.690430 526.990906,635.861755 
	C536.370605,649.045105 549.323853,655.450256 565.344055,657.152405 
	C578.659668,658.567200 590.680542,656.020203 601.253235,648.093079 
	C612.773743,639.455322 619.112610,627.208679 622.948242,613.611572 
	C626.877441,599.682861 627.850586,585.358093 626.888062,571.038330 
	C625.464478,549.857178 622.286316,528.919617 615.888489,508.560455 
	C607.877991,483.069244 596.092041,459.405701 580.767944,437.624786 
	C569.061340,420.985474 555.021545,406.347076 539.607117,392.979736 
	C523.350159,378.881683 505.571014,367.161743 486.285767,357.791260 
	C465.451538,347.668152 443.685455,340.058746 420.617065,337.091156 
	C405.975861,335.207672 391.213837,333.374023 376.490662,333.243256 
	C358.327057,333.081848 340.312439,335.519318 322.467102,339.619904 
	C301.554993,344.425171 281.757141,351.861786 262.792938,361.683899 
	C247.399734,369.656433 233.285248,379.534027 219.876328,390.535126 
	C198.597214,407.993256 180.980118,428.671509 166.723236,452.017090 
	C152.939835,474.587341 142.728394,498.856232 137.024231,524.824768 
	C133.504623,540.848145 131.596024,557.017883 130.779419,573.473145 
	C129.447296,600.316650 133.265411,626.316589 141.442780,651.641724 
	C149.387802,676.247314 161.141190,699.158813 177.206497,719.497498 
	C186.685455,731.497864 196.829666,743.088196 207.649277,753.886475 
	C223.090820,769.297485 240.993256,781.637817 259.929413,792.516357 
	C278.501892,803.185974 298.086151,811.445801 318.661835,817.113281 
	C330.848328,820.470032 343.354034,822.822998 355.834290,824.927124 
	C387.286102,830.229858 419.064392,828.127441 450.677277,827.683044 
	C469.609131,827.416931 488.528229,824.276672 507.397980,821.976440 
	C544.004211,817.514221 579.427490,808.018494 614.214661,796.012390 
	C643.025635,786.068848 670.799072,773.682129 697.463562,758.989929 
	C713.823486,749.975586 730.035706,740.511353 745.405701,729.929565 
	C763.528015,717.453064 781.325989,704.322083 798.058167,690.059387 
	C816.312378,674.499207 833.768372,657.883545 850.468201,640.657532 
	C862.987122,627.744080 874.461670,613.653992 885.134888,599.155457 
	C899.597961,579.508850 913.674866,559.475830 926.406128,538.683044 
	C941.280273,514.390625 953.452759,488.572083 963.929321,462.034546 
	C973.528809,437.718903 981.657410,412.905029 987.200317,387.343475 
	C990.576782,371.772644 993.377197,356.061157 995.901306,340.327026 
	C997.456848,330.630737 997.973633,320.769379 999.043945,310.991669 
	C999.181274,309.737122 999.844788,308.540161 1000.632263,307.158264 
	C1001.000000,538.284668 1001.000000,769.569336 1001.000000,1000.927002 
	C667.785461,1000.927002 334.570892,1000.927002 1.000000,1000.927002 
	C1.000000,873.979309 1.000000,746.958313 0.999999,619.468628 
M446.043365,616.435669 
	C446.734955,614.805664 447.340240,613.132385 448.132172,611.552673 
	C453.268250,601.307739 455.651428,590.219238 455.838135,579.006042 
	C456.320770,550.019470 456.011261,521.019409 455.990875,492.024780 
	C455.986542,485.868652 454.123535,484.003021 448.165100,484.002075 
	C419.170471,483.997498 390.175018,483.886078 361.181824,484.091187 
	C354.999908,484.134888 348.688568,484.737640 342.673676,486.116211 
	C321.687714,490.925934 304.313721,502.067017 291.558228,519.226807 
	C276.906952,538.937012 270.806091,561.231079 273.858093,586.086792 
	C276.875854,610.663635 287.944855,630.684021 306.794647,646.028198 
	C327.613892,662.975342 351.878815,669.089539 378.525909,665.006531 
	C408.962006,660.342957 431.005432,643.904236 446.043365,616.435669 
z"/>
<path fill="#FFFFFF" opacity="none" stroke="none" 
	d="
M1001.000000,214.531342 
	C1000.000977,209.830917 998.605347,204.702362 998.072266,199.485672 
	C995.914490,178.369720 991.848022,157.623413 986.554871,137.098404 
	C979.016296,107.866165 967.672485,80.117714 953.744202,53.389233 
	C952.209534,50.444195 950.600769,47.854424 946.408386,47.878063 
	C942.182434,47.901890 940.694702,50.657692 939.154358,53.540054 
	C924.484558,80.990547 908.206604,107.441093 889.210938,132.110855 
	C882.395813,140.961609 874.540527,149.014923 867.108337,157.386429 
	C846.791443,180.271057 822.573059,198.362091 796.365417,213.774780 
	C777.568542,224.829147 757.630127,233.701767 737.026306,240.876038 
	C723.417053,245.614807 709.585815,249.729034 695.776062,253.862518 
	C693.967224,254.403946 691.036377,254.056839 689.854492,252.883301 
	C688.987183,252.022079 689.577332,248.833984 690.467651,247.200592 
	C696.461182,236.204132 703.348267,225.652405 708.745483,214.381729 
	C721.403992,187.947784 731.185791,160.468063 736.016357,131.417358 
	C737.725403,121.139458 739.462219,110.861977 740.848022,100.538887 
	C741.065308,98.920349 739.758667,95.819672 738.659668,95.567123 
	C736.348877,95.036133 733.143311,95.148453 731.332336,96.438660 
	C728.464783,98.481544 726.614441,101.886414 724.031250,104.404793 
	C703.086121,124.824600 680.532715,143.166672 655.209351,158.002838 
	C632.814331,171.123352 609.438599,182.086227 584.436279,189.035446 
	C568.515808,193.460403 552.253906,196.767609 536.017761,199.920258 
	C512.367004,204.512650 488.357513,204.062683 464.396271,204.016937 
	C429.734528,203.950745 395.055634,203.354446 360.417694,204.264481 
	C342.312958,204.740143 324.242401,207.659943 306.223724,209.995163 
	C280.447052,213.335800 255.923462,221.551025 231.968491,231.183807 
	C205.019608,242.020508 179.747711,256.082489 156.161407,273.199860 
	C138.248062,286.200165 121.407700,300.414978 106.225212,316.440613 
	C86.392075,337.375214 68.735435,360.044830 53.953266,384.922638 
	C38.779087,410.460144 26.109016,437.144958 17.922752,465.677429 
	C12.695803,483.895569 9.160295,502.604156 5.036556,521.130737 
	C3.670292,527.268860 2.834641,533.525146 1.378196,539.863708 
	C1.000000,360.378174 1.000000,180.756317 1.000000,1.067242 
	C334.333344,1.067242 667.666687,1.067242 1001.000000,1.067242 
	C1001.000000,72.098152 1001.000000,143.080414 1001.000000,214.531342 
z"/>
<path fill="none" opacity="1.000000" stroke="none" 
	d="
M1001.000000,304.555847 
	C1000.751709,302.447327 1000.503357,299.894653 1000.627563,297.170990 
	C1001.000000,299.370575 1001.000000,301.741119 1001.000000,304.555847 
z"/>
<path fill="none" opacity="1.000000" stroke="none" 
	d="
M1.000000,542.437439 
	C1.243788,544.226440 1.487578,546.452881 1.365684,548.839661 
	C1.000000,546.958313 1.000000,544.916565 1.000000,542.437439 
z"/>
<path fill="none" opacity="1.000000" stroke="none" 
	d="
M0.999999,610.437439 
	C1.243788,612.226440 1.487577,614.452881 1.365683,616.839661 
	C1.000000,614.958313 1.000000,612.916565 0.999999,610.437439 
z"/>
<path fill="none" opacity="1.000000" stroke="none" 
	d="
M1001.000000,222.571533 
	C1000.760071,221.101532 1000.520203,219.203064 1000.640137,217.152298 
	C1001.000000,218.714355 1001.000000,220.428711 1001.000000,222.571533 
z"/>
<path fill="none" opacity="1.000000" stroke="none" 
	d="
M445.785706,616.717651 
	C431.005432,643.904236 408.962006,660.342957 378.525909,665.006531 
	C351.878815,669.089539 327.613892,662.975342 306.794647,646.028198 
	C287.944855,630.684021 276.875854,610.663635 273.858093,586.086792 
	C270.806091,561.231079 276.906952,538.937012 291.558228,519.226807 
	C304.313721,502.067017 321.687714,490.925934 342.673676,486.116211 
	C348.688568,484.737640 354.999908,484.134888 361.181824,484.091187 
	C390.175018,483.886078 419.170471,483.997498 448.165100,484.002075 
	C454.123535,484.003021 455.986542,485.868652 455.990875,492.024780 
	C456.011261,521.019409 456.320770,550.019470 455.838135,579.006042 
	C455.651428,590.219238 453.268250,601.307739 448.132172,611.552673 
	C447.340240,613.132385 446.734955,614.805664 445.785706,616.717651 
z"/>
</svg>